<svg xmlns="http://www.w3.org/2000/svg" width="686.719" height="1014.356" viewBox="0 0 686.719 1014.356">
  <g id="Group_309" data-name="Group 309" transform="translate(-321.951 78.835)">
    <g id="Group_278" data-name="Group 278" transform="translate(322.626 -78.161)">
      <g id="Group_271" data-name="Group 271" transform="translate(207.898 447.07)" opacity="0.6">
        <g id="Group_270" data-name="Group 270" transform="translate(3.171 3.171)">
          <path id="Path_153" data-name="Path 153" d="M459.979,340.47l167.815,25.209L486.133,241.164Z" transform="translate(-459.979 -200.702)" fill="none" stroke="#2a2a2a" stroke-miterlimit="10" stroke-width="0.25"/>
          <path id="Path_154" data-name="Path 154" d="M477,255.3l86.723-40.462L618.659,379.81l-6.972,121.7-40.641-90.682,47.613-31.021" transform="translate(-450.845 -214.834)" fill="none" stroke="#2a2a2a" stroke-miterlimit="10" stroke-width="0.25"/>
          <line id="Line_17" data-name="Line 17" x1="128.774" y1="112.343" transform="translate(112.876)" fill="none" stroke="#2a2a2a" stroke-miterlimit="10" stroke-width="0.25"/>
          <path id="Path_155" data-name="Path 155" d="M580.18,362.017l-120.2-56.23,70.4,138.68,49.8-82.45" transform="translate(-459.979 -166.019)" fill="none" stroke="#2a2a2a" stroke-miterlimit="10" stroke-width="0.25"/>
          <path id="Path_156" data-name="Path 156" d="M612.594,541.218l-106.8-87.173,90.439,8.232,16.362,78.941,61.078-45.654,55.392-121.27-78.621,19.642,26.6-105.995L603.2,340.574l47.239,53.361-54.211,68.342,77.44,33.287L650.444,393.935" transform="translate(-435.39 -175.598)" fill="none" stroke="#2a2a2a" stroke-miterlimit="10" stroke-width="0.25"/>
          <line id="Line_18" data-name="Line 18" x1="52.024" y1="86.353" transform="translate(241.65 112.343)" fill="none" stroke="#2a2a2a" stroke-miterlimit="10" stroke-width="0.25"/>
        </g>
        <path id="Path_157" data-name="Path 157" d="M575.209,450.931a3.17,3.17,0,1,1-1.746,4.131A3.17,3.17,0,0,1,575.209,450.931Z" transform="translate(-396.027 -85.076)" fill="#fff" stroke="#2a2a2a" stroke-width="1"/>
        <path id="Path_158" data-name="Path 158" d="M564.561,399.56a3.17,3.17,0,1,1-1.744,4.131A3.17,3.17,0,0,1,564.561,399.56Z" transform="translate(-401.741 -112.647)" fill="#fff" stroke="#2a2a2a" stroke-width="1"/>
        <path id="Path_159" data-name="Path 159" d="M600.369,354.588a3.17,3.17,0,1,1-1.746,4.131A3.171,3.171,0,0,1,600.369,354.588Z" transform="translate(-382.523 -136.783)" fill="#fff" stroke="#2a2a2a" stroke-width="1"/>
        <path id="Path_160" data-name="Path 160" d="M651,342.3a3.17,3.17,0,1,1-1.746,4.129A3.17,3.17,0,0,1,651,342.3Z" transform="translate(-355.349 -143.375)" fill="#fff" stroke="#2a2a2a" stroke-width="1"/>
        <path id="Path_161" data-name="Path 161" d="M617.147,286.111a3.17,3.17,0,1,1-1.744,4.131A3.171,3.171,0,0,1,617.147,286.111Z" transform="translate(-373.519 -173.534)" fill="#fff" stroke="#2a2a2a" stroke-width="1"/>
        <path id="Path_162" data-name="Path 162" d="M569.1,320.362a3.17,3.17,0,1,1-1.746,4.131A3.171,3.171,0,0,1,569.1,320.362Z" transform="translate(-399.306 -155.152)" fill="#fff" stroke="#2a2a2a" stroke-width="1"/>
        <path id="Path_163" data-name="Path 163" d="M533.348,213a3.17,3.17,0,1,1-1.746,4.131A3.172,3.172,0,0,1,533.348,213Z" transform="translate(-418.493 -212.77)" fill="#fff" stroke="#2a2a2a" stroke-width="1"/>
        <path id="Path_164" data-name="Path 164" d="M476.913,239.334a3.17,3.17,0,1,1-1.744,4.131A3.171,3.171,0,0,1,476.913,239.334Z" transform="translate(-448.781 -198.639)" fill="#fff" stroke="#2a2a2a" stroke-width="1"/>
        <path id="Path_165" data-name="Path 165" d="M538.114,340.549a3.17,3.17,0,1,1-1.744,4.131A3.171,3.171,0,0,1,538.114,340.549Z" transform="translate(-415.935 -144.317)" fill="#fff" stroke="#2a2a2a" stroke-width="1"/>
        <path id="Path_166" data-name="Path 166" d="M505.708,394.2a3.171,3.171,0,1,1-1.744,4.131A3.171,3.171,0,0,1,505.708,394.2Z" transform="translate(-433.327 -115.522)" fill="#fff" stroke="#2a2a2a" stroke-width="1"/>
        <path id="Path_167" data-name="Path 167" d="M459.894,303.958a3.17,3.17,0,1,1-1.746,4.129A3.168,3.168,0,0,1,459.894,303.958Z" transform="translate(-457.915 -163.956)" fill="#fff" stroke="#2a2a2a" stroke-width="1"/>
        <path id="Path_168" data-name="Path 168" d="M615.543,420.921a3.17,3.17,0,1,1-1.744,4.131A3.171,3.171,0,0,1,615.543,420.921Z" transform="translate(-374.379 -101.182)" fill="#fff" stroke="#2a2a2a" stroke-width="1"/>
      </g>
      <g id="Group_273" data-name="Group 273" transform="translate(114.845 188.279)">
        <g id="Group_272" data-name="Group 272" transform="translate(3.171 3.171)">
          <path id="Path_169" data-name="Path 169" d="M649.142,172.062,481.327,197.271,622.988,72.756Z" transform="translate(-355.467 -32.294)" fill="none" stroke="#2a2a2a" stroke-miterlimit="10" stroke-width="0.25"/>
          <path id="Path_170" data-name="Path 170" d="M622.988,86.887,536.266,46.425,481.327,211.4,488.3,333.1l40.641-90.682L481.327,211.4" transform="translate(-355.467 -46.425)" fill="none" stroke="#2a2a2a" stroke-miterlimit="10" stroke-width="0.25"/>
          <line id="Line_19" data-name="Line 19" y1="112.343" x2="128.774" transform="translate(52.024)" fill="none" stroke="#2a2a2a" stroke-miterlimit="10" stroke-width="0.25"/>
          <path id="Path_171" data-name="Path 171" d="M512.312,193.609l120.2-56.23-70.4,138.68-49.8-82.45" transform="translate(-338.838 2.389)" fill="none" stroke="#2a2a2a" stroke-miterlimit="10" stroke-width="0.25"/>
          <path id="Path_172" data-name="Path 172" d="M515.895,372.81l106.8-87.172-90.439,8.232L515.895,372.81l-61.078-45.654L399.424,205.885l78.621,19.642-26.6-105.995,73.836,52.634-47.238,53.361,54.211,68.342-77.44,33.287,23.229-101.629" transform="translate(-399.424 -7.189)" fill="none" stroke="#2a2a2a" stroke-miterlimit="10" stroke-width="0.25"/>
          <line id="Line_20" data-name="Line 20" y1="86.353" x2="52.024" transform="translate(0 112.343)" fill="none" stroke="#2a2a2a" stroke-miterlimit="10" stroke-width="0.25"/>
        </g>
        <path id="Path_173" data-name="Path 173" d="M477.517,282.523a3.17,3.17,0,1,0,1.746,4.129A3.168,3.168,0,0,0,477.517,282.523Z" transform="translate(-356.683 83.332)" fill="#fff" stroke="#2a2a2a" stroke-width="1"/>
        <path id="Path_174" data-name="Path 174" d="M488.165,231.152a3.17,3.17,0,1,0,1.744,4.131A3.171,3.171,0,0,0,488.165,231.152Z" transform="translate(-350.969 55.761)" fill="#fff" stroke="#2a2a2a" stroke-width="1"/>
        <path id="Path_175" data-name="Path 175" d="M452.358,186.18a3.171,3.171,0,1,0,1.744,4.131A3.169,3.169,0,0,0,452.358,186.18Z" transform="translate(-370.186 31.625)" fill="#fff" stroke="#2a2a2a" stroke-width="1"/>
        <path id="Path_176" data-name="Path 176" d="M401.724,173.9a3.17,3.17,0,1,0,1.746,4.129A3.168,3.168,0,0,0,401.724,173.9Z" transform="translate(-397.361 25.033)" fill="#fff" stroke="#2a2a2a" stroke-width="1"/>
        <path id="Path_177" data-name="Path 177" d="M435.579,117.7a3.17,3.17,0,1,0,1.746,4.131A3.17,3.17,0,0,0,435.579,117.7Z" transform="translate(-379.191 -5.126)" fill="#fff" stroke="#2a2a2a" stroke-width="1"/>
        <path id="Path_178" data-name="Path 178" d="M483.627,151.954a3.17,3.17,0,1,0,1.746,4.131A3.169,3.169,0,0,0,483.627,151.954Z" transform="translate(-353.404 13.257)" fill="#fff" stroke="#2a2a2a" stroke-width="1"/>
        <path id="Path_179" data-name="Path 179" d="M519.378,44.6a3.17,3.17,0,1,0,1.746,4.131A3.168,3.168,0,0,0,519.378,44.6Z" transform="translate(-334.217 -44.362)" fill="#fff" stroke="#2a2a2a" stroke-width="1"/>
        <path id="Path_180" data-name="Path 180" d="M575.813,70.926a3.17,3.17,0,1,0,1.746,4.131A3.171,3.171,0,0,0,575.813,70.926Z" transform="translate(-303.929 -30.23)" fill="#fff" stroke="#2a2a2a" stroke-width="1"/>
        <path id="Path_181" data-name="Path 181" d="M514.612,172.141a3.17,3.17,0,1,0,1.746,4.131A3.17,3.17,0,0,0,514.612,172.141Z" transform="translate(-336.775 24.091)" fill="#fff" stroke="#2a2a2a" stroke-width="1"/>
        <path id="Path_182" data-name="Path 182" d="M547.018,225.795a3.171,3.171,0,1,0,1.744,4.131A3.17,3.17,0,0,0,547.018,225.795Z" transform="translate(-319.383 52.886)" fill="#fff" stroke="#2a2a2a" stroke-width="1"/>
        <path id="Path_183" data-name="Path 183" d="M592.833,135.548a3.171,3.171,0,1,0,1.744,4.131A3.171,3.171,0,0,0,592.833,135.548Z" transform="translate(-294.795 4.452)" fill="#fff" stroke="#2a2a2a" stroke-width="1"/>
        <path id="Path_184" data-name="Path 184" d="M437.183,252.513a3.17,3.17,0,1,0,1.746,4.131A3.17,3.17,0,0,0,437.183,252.513Z" transform="translate(-378.331 67.226)" fill="#fff" stroke="#2a2a2a" stroke-width="1"/>
      </g>
      <g id="Group_275" data-name="Group 275" opacity="0.6">
        <g id="Group_274" data-name="Group 274" transform="translate(3.172 3.171)">
          <path id="Path_185" data-name="Path 185" d="M459.5-76.1l4.46,169.639L357.735-62.307Z" transform="translate(-306.954 76.097)" fill="none" stroke="#2a2a2a" stroke-miterlimit="10" stroke-width="0.25"/>
          <path id="Path_186" data-name="Path 186" d="M375.471-67.123,324.69,13.989l157,74.736,121.64,7.99-85.02-51.444-36.62,43.454" transform="translate(-324.69 80.914)" fill="none" stroke="#2a2a2a" stroke-miterlimit="10" stroke-width="0.25"/>
          <line id="Line_21" data-name="Line 21" x1="95.721" y1="141.567" transform="translate(0 94.903)" fill="none" stroke="#2a2a2a" stroke-miterlimit="10" stroke-width="0.25"/>
          <path id="Path_187" data-name="Path 187" d="M465.037,50.087,423.957-76.1l129.01,86.863-87.93,39.322" transform="translate(-271.414 76.097)" fill="none" stroke="#2a2a2a" stroke-miterlimit="10" stroke-width="0.25"/>
          <path id="Path_188" data-name="Path 188" d="M646.245,97.1,572.813-19.572,569.9,71.194,646.245,97.1l-52.793,55.025L466.308,192.247l29.126-75.623L386.98,130.036,448.262,63.2l47.172,53.42L569.9,71.194l23.549,80.934-98.017-35.5" transform="translate(-291.259 106.434)" fill="none" stroke="#2a2a2a" stroke-miterlimit="10" stroke-width="0.25"/>
          <line id="Line_22" data-name="Line 22" x1="79.329" y1="62.211" transform="translate(95.721 236.47)" fill="none" stroke="#2a2a2a" stroke-miterlimit="10" stroke-width="0.25"/>
        </g>
        <path id="Path_189" data-name="Path 189" d="M554.034,55.918a3.171,3.171,0,1,0,4.313-1.225A3.17,3.17,0,0,0,554.034,55.918Z" transform="translate(-198.646 149.247)" fill="#fff" stroke="#2a2a2a" stroke-width="1"/>
        <path id="Path_190" data-name="Path 190" d="M504.355,39.059a3.17,3.17,0,1,0,4.312-1.226A3.169,3.169,0,0,0,504.355,39.059Z" transform="translate(-225.308 140.197)" fill="#fff" stroke="#2a2a2a" stroke-width="1"/>
        <path id="Path_191" data-name="Path 191" d="M455.334,69.087a3.171,3.171,0,1,0,4.313-1.226A3.172,3.172,0,0,0,455.334,69.087Z" transform="translate(-251.618 156.313)" fill="#fff" stroke="#2a2a2a" stroke-width="1"/>
        <path id="Path_192" data-name="Path 192" d="M436.94,117.834a3.171,3.171,0,1,0,4.313-1.226A3.171,3.171,0,0,0,436.94,117.834Z" transform="translate(-261.489 182.475)" fill="#fff" stroke="#2a2a2a" stroke-width="1"/>
        <path id="Path_193" data-name="Path 193" d="M385.317,77.35a3.171,3.171,0,1,0,4.314-1.226A3.171,3.171,0,0,0,385.317,77.35Z" transform="translate(-289.195 160.748)" fill="#fff" stroke="#2a2a2a" stroke-width="1"/>
        <path id="Path_194" data-name="Path 194" d="M425.2,33.858a3.171,3.171,0,1,0,4.313-1.225A3.171,3.171,0,0,0,425.2,33.858Z" transform="translate(-267.792 137.407)" fill="#fff" stroke="#2a2a2a" stroke-width="1"/>
        <path id="Path_195" data-name="Path 195" d="M323.027-14.776a3.172,3.172,0,0,0,1.226,4.313,3.17,3.17,0,0,0,4.314-1.226A3.171,3.171,0,0,0,327.341-16,3.171,3.171,0,0,0,323.027-14.776Z" transform="translate(-322.626 111.306)" fill="#fff" stroke="#2a2a2a" stroke-width="1"/>
        <path id="Path_196" data-name="Path 196" d="M356.073-67.558a3.17,3.17,0,0,0,1.226,4.312,3.171,3.171,0,0,0,4.314-1.225,3.173,3.173,0,0,0-1.226-4.314A3.17,3.17,0,0,0,356.073-67.558Z" transform="translate(-304.89 82.977)" fill="#fff" stroke="#2a2a2a" stroke-width="1"/>
        <path id="Path_197" data-name="Path 197" d="M449.028,5.58a3.171,3.171,0,1,0,4.312-1.225A3.171,3.171,0,0,0,449.028,5.58Z" transform="translate(-255.002 122.231)" fill="#fff" stroke="#2a2a2a" stroke-width="1"/>
        <path id="Path_198" data-name="Path 198" d="M506.248-20.008a3.17,3.17,0,0,0,1.226,4.313,3.171,3.171,0,0,0,4.312-1.226,3.171,3.171,0,0,0-1.225-4.313A3.173,3.173,0,0,0,506.248-20.008Z" transform="translate(-224.293 108.497)" fill="#fff" stroke="#2a2a2a" stroke-width="1"/>
        <path id="Path_199" data-name="Path 199" d="M422.3-76.534a3.171,3.171,0,0,0,1.225,4.313,3.17,3.17,0,0,0,4.314-1.226,3.169,3.169,0,0,0-1.225-4.312A3.171,3.171,0,0,0,422.3-76.534Z" transform="translate(-269.349 78.161)" fill="#fff" stroke="#2a2a2a" stroke-width="1"/>
        <path id="Path_200" data-name="Path 200" d="M519.309,92.272a3.17,3.17,0,1,0,4.312-1.225A3.171,3.171,0,0,0,519.309,92.272Z" transform="translate(-217.283 168.757)" fill="#fff" stroke="#2a2a2a" stroke-width="1"/>
      </g>
      <g id="Group_277" data-name="Group 277" transform="translate(340.228 756.01)">
        <g id="Group_276" data-name="Group 276" transform="translate(3.606 3.171)">
          <path id="Path_201" data-name="Path 201" d="M792.608,462.107l-148.4,82.3,188.2,12.369Z" transform="translate(-493.871 -391.064)" fill="none" stroke="#2a2a2a" stroke-miterlimit="10" stroke-width="0.25"/>
          <path id="Path_202" data-name="Path 202" d="M856.379,563.214l-44.09,84.935-144.109-97.3L599.529,450.111l87.491,47.12L668.18,550.845" transform="translate(-517.848 -397.501)" fill="none" stroke="#2a2a2a" stroke-miterlimit="10" stroke-width="0.25"/>
          <line id="Line_23" data-name="Line 23" x2="170.563" y2="10.574" transform="translate(123.878 240.073)" fill="none" stroke="#2a2a2a" stroke-miterlimit="10" stroke-width="0.25"/>
          <path id="Path_203" data-name="Path 203" d="M660.227,514.2l129.565-28.686L649.451,418.487,660.227,514.2" transform="translate(-491.055 -414.474)" fill="none" stroke="#2a2a2a" stroke-miterlimit="10" stroke-width="0.25"/>
          <path id="Path_204" data-name="Path 204" d="M566.969,415.875l137.8,4.013-76.715,48.6-61.087-52.61L546.375,489.3l30,129.9,50.357-63.492,43.519,100.241,26.455-86.73-69.974-13.511,1.322-87.222L546.375,489.3l80.359,66.411" transform="translate(-546.375 -415.875)" fill="none" stroke="#2a2a2a" stroke-miterlimit="10" stroke-width="0.25"/>
          <line id="Line_24" data-name="Line 24" x2="93.877" y2="36.749" transform="translate(30.002 203.324)" fill="none" stroke="#2a2a2a" stroke-miterlimit="10" stroke-width="0.25"/>
        </g>
        <path id="Path_205" data-name="Path 205" d="M563.62,418.585a3.171,3.171,0,1,1-1.134-4.338A3.17,3.17,0,0,1,563.62,418.585Z" transform="translate(-536.684 -413.812)" fill="#fff" stroke="#2a2a2a" stroke-width="1"/>
        <path id="Path_206" data-name="Path 206" d="M603.372,452.821a3.171,3.171,0,1,1-1.134-4.338A3.17,3.17,0,0,1,603.372,452.821Z" transform="translate(-515.349 -395.438)" fill="#fff" stroke="#2a2a2a" stroke-width="1"/>
        <path id="Path_207" data-name="Path 207" d="M602.4,510.3a3.171,3.171,0,1,1-1.134-4.338A3.172,3.172,0,0,1,602.4,510.3Z" transform="translate(-515.873 -364.59)" fill="#fff" stroke="#2a2a2a" stroke-width="1"/>
        <path id="Path_208" data-name="Path 208" d="M569.742,550.9a3.171,3.171,0,1,1-1.134-4.338A3.171,3.171,0,0,1,569.742,550.9Z" transform="translate(-533.398 -342.801)" fill="#fff" stroke="#2a2a2a" stroke-width="1"/>
        <path id="Path_209" data-name="Path 209" d="M630.832,574.812a3.17,3.17,0,1,1-1.134-4.338A3.17,3.17,0,0,1,630.832,574.812Z" transform="translate(-500.612 -329.966)" fill="#fff" stroke="#2a2a2a" stroke-width="1"/>
        <path id="Path_210" data-name="Path 210" d="M648.047,518.373a3.171,3.171,0,1,1-1.134-4.338A3.172,3.172,0,0,1,648.047,518.373Z" transform="translate(-491.373 -360.257)" fill="#fff" stroke="#2a2a2a" stroke-width="1"/>
        <path id="Path_211" data-name="Path 211" d="M741.826,581.694a3.171,3.171,0,1,1-1.134-4.338A3.172,3.172,0,0,1,741.826,581.694Z" transform="translate(-441.042 -326.273)" fill="#fff" stroke="#2a2a2a" stroke-width="1"/>
        <path id="Path_212" data-name="Path 212" d="M770.517,526.422a3.171,3.171,0,1,1-1.134-4.338A3.171,3.171,0,0,1,770.517,526.422Z" transform="translate(-425.644 -355.937)" fill="#fff" stroke="#2a2a2a" stroke-width="1"/>
        <path id="Path_213" data-name="Path 213" d="M660.307,483.484a3.171,3.171,0,1,1-1.134-4.338A3.172,3.172,0,0,1,660.307,483.484Z" transform="translate(-484.793 -378.981)" fill="#fff" stroke="#2a2a2a" stroke-width="1"/>
        <path id="Path_214" data-name="Path 214" d="M653.294,421.2a3.17,3.17,0,1,1-1.133-4.338A3.167,3.167,0,0,1,653.294,421.2Z" transform="translate(-488.556 -412.411)" fill="#fff" stroke="#2a2a2a" stroke-width="1"/>
        <path id="Path_215" data-name="Path 215" d="M744.621,464.816a3.17,3.17,0,1,1-1.134-4.338A3.169,3.169,0,0,1,744.621,464.816Z" transform="translate(-439.542 -389)" fill="#fff" stroke="#2a2a2a" stroke-width="1"/>
        <path id="Path_216" data-name="Path 216" d="M549.935,466.96a3.171,3.171,0,1,1-1.134-4.338A3.17,3.17,0,0,1,549.935,466.96Z" transform="translate(-544.028 -387.849)" fill="#fff" stroke="#2a2a2a" stroke-width="1"/>
      </g>
    </g>
  </g>
</svg>
